<svg preserveAspectRatio="xMidYMid meet" width="1014" height="1056" viewBox="0 0 1014 1056" fill="none" xmlns="http://www.w3.org/2000/svg">
<path d="M1 287.006C1 287.006 55.5842 276.803 73.3301 272.847C88.383 269.48 132.851 253.932 132.851 253.932C132.851 253.932 172.314 280.274 188.609 283.466C223.273 290.269 257.142 287.041 257.142 287.041C257.142 287.041 261.665 250.149 255.243 222.489C251.652 207.011 233.043 160.02 233.043 160.02H279.756C279.756 160.02 287.282 209.232 339.277 209.995C394.31 210.794 386.749 160.02 386.749 160.02C386.749 160.02 450.033 157.764 477.895 126.703C518.531 81.4469 499.75 25.2243 499.75 25.2243L576.568 1C576.568 1 660.188 90.3662 770.15 149.4C869.79 202.915 1012.97 235.712 1012.97 235.712C1012.97 235.712 990.869 269.029 980.339 325.807C966.84 398.549 975.264 423.502 975.264 423.502C975.264 423.502 932.315 449.878 910.288 481.807C884.67 518.907 873.38 573.429 873.38 573.429L919.782 550.107L962.283 674.526C962.283 674.526 929.898 720.337 944.951 761.983C961.212 806.927 1013 819.525 1013 819.525C1013 819.525 1007.17 840.938 987.141 880.085C973.572 906.6 942.707 937.627 942.707 937.627C942.707 937.627 915.605 963.586 887.708 964.142C848.522 964.905 829.706 944.845 829.706 944.845C829.706 944.845 748.227 890.115 679.798 927.042C598.457 970.944 629.322 1055 629.322 1055C629.322 1055 497.126 1048.58 408.603 1019.43C320.081 990.275 202.972 929.332 202.972 929.332C202.972 929.332 253.551 853.883 266.256 771.839C282.069 669.632 275.751 638.259 263.253 596.161C249.961 551.426 197.69 464.038 151.737 428.431C87.3818 378.698 8.52647 356.243 8.52647 356.243L1 287.006Z" stroke="black" stroke-miterlimit="10"/>
</svg>
