<svg preserveAspectRatio="xMidYMid meet" width="1012" height="1447" viewBox="0 0 1012 1447" fill="none" xmlns="http://www.w3.org/2000/svg">
<path d="M306.51 245.009L320.708 236.151L330.163 249.154L324.257 256.848L327.21 263.35L337.262 269.256L340.811 276.949H352.624L363.868 272.804L369.178 265.111L364.437 252.703L361.483 230.841L359.722 206.026L362.676 194.214L375.084 171.756L367.39 149.298L375.084 131.553L369.178 119.146L363.868 115.597L363.272 103.189L369.774 93.1384L369.178 85.4446L375.084 78.3468L384.54 47.0298L391.043 39.3361V23.9756L386.897 17.4738L391.043 12.164H404.047L411.146 8.01911V1.49023H416.456L422.363 8.58802L446.015 1.49023L469.072 18.6387L519.9 39.905L540.003 32.2112L547.075 15.6587L562.464 26.9014V44.6459L547.075 64.7472V117.358L557.153 139.22H570.158L573.111 154.58L584.924 161.678L577.23 177.039L576.038 190.042L553.577 236.747L552.981 255.06L533.474 273.373L537.023 259.178L522.826 265.084L486.168 289.899L483.215 306.451L492.075 311.192L486.764 321.243L469.614 344.297L464.873 357.301L474.924 368.543L484.976 386.857L487.929 405.766L499.173 415.817L492.075 422.914L493.267 437.11L494.459 454.855L503.914 461.356V470.215H508.06L506.299 479.67L527.567 496.818L551.22 503.32L552.981 498.579L524.018 475.525L521.661 467.831L531.712 471.38L557.722 495.03L563.033 490.289L547.047 476.094L554.742 470.784L565.986 479.643L568.343 464.878L584.897 456.019L594.949 461.925L605.597 456.615L619.198 464.878L636.944 479.643V488.501L642.254 496.764L635.752 514.508L648.757 521.606L661.166 518.653L665.907 506.842L655.259 490.885L668.86 479.074L679.508 498.579H688.368L708.471 502.724L722.668 512.179L732.72 521.633H720.907L709.663 525.182L692.513 522.229L689.56 533.472L701.969 545.284L710.828 560.644L719.688 566.55L716.139 555.307L729.74 563.57L739.791 566.523L744.533 571.264H730.336L716.735 574.217L710.232 578.957L712.589 593.153H719.688L724.998 584.294L738.599 593.153L744.506 595.51L748.055 589.604L756.914 590.796L751.604 606.753L753.961 620.948L748.055 632.76L749.247 646.359H738.599L720.284 625.093V612.685L727.382 608.541L740.387 606.184V600.874L723.237 594.968V602.066L713.781 610.925L704.922 613.281L677.72 592.015L665.311 596.756L662.954 584.944L666.503 575.49L654.69 555.984L654.094 553.032L625.727 538.267L613.318 528.812L619.225 520.55L597.36 510.499L587.309 497.495L574.304 498.091L580.806 515.836L577.853 522.338L595.003 544.2C595.003 544.2 605.651 564.301 605.651 566.062C605.651 567.823 599.744 579.066 599.744 579.066L591.481 582.019L580.237 570.776L582.594 562.513L566.04 541.816L562.491 535.314L547.102 531.765V522.311L505.73 497.495H495.082L494.486 502.236L476.74 508.738L473.786 519.981L475.547 529.435L470.237 531.196L459.589 530.004L451.326 535.91L434.772 530.6L435.964 517.597L424.72 515.24L419.978 530.004L412.284 527.051L418.786 514.644L413.476 502.236L400.471 497.495L397.518 504.593L392.777 509.903L391.584 517.597L382.725 494.543L389.227 488.637L385.082 472.68L390.392 465.582L403.993 458.485L417.594 443.72H425.289L431.195 434.266L414.045 412.403L393.345 408.258L386.843 396.447L380.341 404.709V419.474L386.843 428.333L387.439 444.885L378.579 448.434H373.269L365.006 437.787L363.813 427.141L352.001 416.494L356.146 398.181L351.405 394.632L340.161 404.682L342.518 412.376L329.513 397.016L330.109 375.749L323.01 354.483L316.508 339.719L321.249 332.621L317.104 316.068L315.912 297.755L314.151 282.395L306.456 281.799L302.907 288.3L298.762 283.559L303.503 265.246L306.456 245.145L306.51 245.009Z" stroke="black" stroke-miterlimit="10"/>
<path d="M522.256 422.914V411.102L516.35 395.742L510.443 388.644L530.547 381.546L534.096 387.452V402.244V418.796L522.256 425.894V422.914Z" stroke="black" stroke-miterlimit="10"/>
<path d="M351.43 523.99V514.535L337.233 504.484L330.135 509.225L351.43 523.99Z" stroke="black" stroke-miterlimit="10"/>
<path d="M359.125 549.428L368.581 541.734L399.305 549.428L422.958 545.581L430.056 549.428L448.371 552.95L470.832 572.455V584.294H485.029H487.982L476.169 605.56L480.288 625.662L487.982 636.904L473.189 650.477L468.475 673.694L456.662 678.868L451.325 684.774L438.32 678.868L430.056 680.629L432.413 670.578L419.408 651.073L420.004 639.261L412.31 624.47L404.642 627.45L399.305 590.2L383.943 573.051L373.295 565.385L374.487 549.997L370.342 549.428L359.125 555.93V549.428Z" stroke="black" stroke-miterlimit="10"/>
<path d="M513.993 563.001L510.443 547.64L517.542 539.377L534.096 541.734L544.148 551.189V560.048L531.143 577.792L513.993 563.001Z" stroke="black" stroke-miterlimit="10"/>
<path d="M742.176 531.088V523.99L748.678 520.441V485.575L756.942 480.861L770.543 497.414L779.402 505.974L775.284 516.919L779.402 527.539L771.735 531.088L767.59 541.734L760.789 535.233L756.942 539.377L742.176 531.088Z" stroke="black" stroke-miterlimit="10"/>
<path d="M662.954 616.207V610.301L654.095 606.752L638.136 582.506H630.442L626.893 596.105L638.732 599.356L649.353 613.254L662.954 616.207Z" stroke="black" stroke-miterlimit="10"/>
<path d="M692.512 633.355L697.822 627.45L712.019 640.453L717.329 667.029H711.423L692.512 633.355Z" stroke="black" stroke-miterlimit="10"/>
<path d="M547.074 635.116L541.194 667.029L534.096 693.036L527.295 688.919L527.891 679.464L522.256 671.77L527.295 661.123L534.096 656.41V639.261L547.074 635.116Z" stroke="black" stroke-miterlimit="10"/>
<path d="M575.469 659.363L579.018 651.073H601.479L604.432 664.076L597.929 673.694H589.964L583.732 664.076L575.469 659.363Z" stroke="black" stroke-miterlimit="10"/>
<path d="M658.238 641.618L662.953 662.397L655.854 678.868L662.953 681.821L649.352 702.491V716.091L662.953 706.636L678.911 684.774L687.77 681.821L699.014 698.969L711.423 706.636L704.921 710.781L725.024 716.091L742.174 733.835H746.292V714.926L736.268 695.989L721.475 680.629L712.019 681.821L704.921 667.029L695.465 664.076L683.652 651.073L676.554 646.359L668.263 658.171V646.359L658.238 641.618Z" stroke="black" stroke-miterlimit="10"/>
<path d="M764.635 641.618H786.499L808.364 647.226L833.805 641.618H853.881L869.839 651.073V670.578L889.347 673.694L893.492 693.037L882.275 709.589L888.182 725.545L889.943 742.098L893.492 753.937L904.14 766.94L908.854 772.25L895.849 784.658L900.59 790.563L908.854 786.445L925.408 810.069L913.595 807.116L910.642 794.708L900.59 797.661L888.182 796.496L883.44 802.402L875.773 796.496L862.768 799.449L855.073 780.513L845.022 776.991V781.705L847.975 797.661L845.022 817.166L842.068 833.123L853.881 842.578L860.98 856.773L860.384 870.969L870.435 875.087L871.031 888.09H858.026L857.43 897.545L866.317 903.478L873.984 916.481L876.342 924.744H869.27L863.933 910.548L857.43 904.643L853.881 896.38L845.022 881.019L839.115 872.134V880.423L845.022 894.023V907.595V912.932L834.97 905.239L828.467 900.525H821.369L819.012 889.282V876.875L814.866 863.871L820.8 841.413L814.297 823.668L801.292 810.069L794.194 814.214V826.025L787.691 826.621L779.401 817.166L776.448 783.195L772.302 765.748L768.78 752.149L775.283 755.101L784.738 768.701L791.241 765.152L798.312 776.395L811.317 778.752L823.157 770.489L829.659 766.344L839.711 766.94L829.659 758.65H822.561L810.152 733.835H813.105L826.706 750.388L841.472 745.051L845.022 733.835L840.876 727.929L831.42 730.882L819.608 716.687L807.199 703.087L800.1 695.989L791.241 700.73L775.283 677.676L771.137 662.397L764.635 641.618Z" stroke="black" stroke-miterlimit="10"/>
<path d="M777.045 736.788H794.195L799.505 750.388V761.007H788.289L779.402 752.149L777.045 741.502L771.734 736.788H777.045Z" stroke="black" stroke-miterlimit="10"/>
<path d="M527.296 713.138L515.754 730.286L538.811 736.788V745.051L534.665 768.701V795.9L527.892 814.213L519.899 835.507L527.892 841.413L522.256 857.965L519.899 869.777L527.296 876.278L538.811 857.369L561.867 849.675L580.21 843.173L589.963 846.722L583.732 857.369L582.567 868.585L584.328 876.278L593.783 868.585L604.431 856.773V842.009L589.963 840.817L587.281 836.076L601.478 833.719L610.338 828.409V816.001L620.985 806.52L639.301 794.708L644.936 792.351V774.607L649.352 766.94V748.898L619.224 763.391L618.032 752.148L609.173 748.898L594.976 756.293L568.37 733.835L550.054 727.333L534.665 721.996L527.296 713.138Z" stroke="black" stroke-miterlimit="10"/>
<path d="M655.854 811.261L632.228 825.456V842.578L623.938 857.965L614.482 860.918L619.223 876.279L618.627 894.023L620.984 904.643L614.482 911.144L604.43 916.481L595.571 924.744L582.566 919.434L575.467 929.485L571.918 944.845L575.467 957.849L589.962 970.257L604.43 988.001L613.886 983.856L621.581 988.001L626.891 1009.27L635.75 1020.51L644.935 1015.77L649.351 1020.51L662.952 999.217L666.502 986.213L652.901 969.661L644.935 956.061L649.351 954.3V926.532L659.403 915.885L666.502 894.023L669.455 885.733L666.502 876.279L679.507 862.083L682.46 849.08L695.465 833.719L692.512 822.503L687.77 813.618L673.6 815.406L662.952 811.261H652.305H655.854Z" stroke="black" stroke-miterlimit="10"/>
<path d="M708.471 797.065L717.33 791.755L712.914 778.156L708.471 780.513V797.065Z" stroke="black" stroke-miterlimit="10"/>
<path d="M742.174 783.194L730.334 797.065V804.163L727.381 816.001L722.071 837.864L708.47 855.581L704.921 872.729L695.465 879.827L692.512 891.639L680.103 909.979L673.6 924.744V934.794L666.502 948.394V969.66L670.647 977.95L678.315 969.66L688.963 944.845L695.465 933.602L704.325 918.242L697.822 908.787L712.913 895.784L727.381 889.878L731.527 880.559L733.884 891.639L742.174 884.541L737.433 876.278H742.174V835.507V823.668V811.26L738.029 802.402L746.293 787.61V783.194H742.174Z" stroke="black" stroke-miterlimit="10"/>
<path d="M771.733 841.412L764.635 853.82L771.733 858.534L777.044 849.973H785.605H793.598L779.401 837.268L779.103 842.008L771.733 841.412Z" stroke="black" stroke-miterlimit="10"/>
<path d="M756.941 898.141L746.293 910.548V920.03L737.434 924.744L723.833 927.101L717.33 935.39V943.057H723.833L725.621 951.347L712.914 960.802L717.33 966.707L734.914 957.849L746.293 960.802L751.631 957.849L771.734 960.802L782.951 951.347V944.249L790.646 940.104L793.599 947.798L799.505 940.104V932.438V924.744L793.599 915.885L804.815 907.026L799.505 901.094L793.599 908.191L779.402 898.141H767.589H756.941Z" stroke="black" stroke-miterlimit="10"/>
<path d="M895.281 892.831H901.187L898.234 880.559L907.094 872.134V867.989H913L908.855 887.494C908.855 887.494 913.596 896.353 913 898.141C912.404 899.929 911.916 913.501 913.054 915.885C914.192 918.269 915.357 932.438 915.357 932.438L908.855 936.583L905.306 924.771V907.027L898.803 905.835L895.254 898.141V892.831H895.281Z" stroke="black" stroke-miterlimit="10"/>
<path d="M953.803 904.643L949.658 918.242L941.367 924.744L947.599 936.556L953.803 940.7H959.113L966.212 932.438L959.113 924.744L956.16 915.885L953.803 904.643Z" stroke="black" stroke-miterlimit="10"/>
<path d="M683.057 995.668V1006.31L697.823 1013.41L704.921 1008.67L712.914 1010.46L708.47 1004.55L706.411 995.668L704.921 985.617L695.466 990.358L683.057 995.668Z" stroke="black" stroke-miterlimit="10"/>
<path d="M812.509 1013.41H821.369L824.918 1008.67L818.713 999.515L812.509 992.715L804.814 999.515L809.556 1008.08L812.509 1013.41Z" stroke="black" stroke-miterlimit="10"/>
<path d="M889.346 936.556L884.605 945.414L889.346 962.563L895.253 974.97C895.253 974.97 894.657 985.021 895.253 985.617C895.849 986.213 901.159 999.515 901.159 999.515V1008.08L897.61 1020.48H875.149L864.502 1008.67V1029.37L853.854 1039.42L844.994 1024.65L832.585 1020.51H821.341L818.388 1028.77L824.891 1045.33L818.388 1053.02V1066.02L814.839 1074.88L804.787 1071.33L789.425 1066.02L785.578 1061.28L779.075 1068.98L771.679 1071.93L769.322 1086.12V1096.77L764.58 1105.63H746.265L733.26 1110.37L719.659 1120.42L708.415 1124.57L701.913 1121.61L720.228 1113.92L725.539 1104.46L724.942 1091.46L720.797 1078.46L712.805 1064.86L701.859 1056.59L695.356 1063.69L687.093 1056.59L682.947 1050.09L677.637 1051.29V1063.1L669.942 1067.24L659.891 1076.1L649.243 1071.96L644.8 1076.7L633.556 1091.46C633.556 1091.46 635.615 1095.61 633.556 1097.37C631.497 1099.13 636.211 1107.42 636.211 1107.42L619.657 1111.56L604.295 1116.3L599.553 1110.4L597.196 1118.09C597.196 1118.09 589.502 1115.73 584.787 1116.9C580.073 1118.06 558.777 1124.59 558.777 1124.59L546.938 1140.55L544.011 1148.81L546.938 1164.77C546.938 1164.77 544.011 1170.67 544.011 1173.03C544.011 1175.39 538.701 1181.29 538.701 1181.29V1200.8L534.556 1204.94L527.755 1210.85L518.598 1220.3V1232.71L527.755 1239.21L539.27 1244.52C539.27 1244.52 546.314 1245.12 546.938 1244.52C547.561 1243.93 553.467 1233.88 553.467 1233.88L560.566 1218.52L561.162 1204.32L569.425 1199.01L568.233 1191.91L567.637 1184.22L575.332 1182.46L582.43 1175.36L575.332 1171.22L589.827 1159.4L604.322 1154.66H621.472V1157.62L612.612 1162.93C612.612 1162.93 613.208 1165.28 613.805 1167.07C614.401 1168.86 616.758 1172.38 616.162 1174.17C615.566 1175.96 612.016 1180.07 612.016 1180.07L613.208 1188.34L614.97 1194.24L617.327 1204.89L622.068 1201.34L629.763 1196.6L626.809 1187.15L620.307 1188.91L623.856 1178.86L626.809 1179.45L633.61 1183L638.622 1176.5L640.979 1167.64L649.243 1155.83C649.243 1155.83 651.6 1164.09 653.388 1165.28C655.176 1166.48 662.844 1170.59 662.844 1170.59L652.792 1174.14L644.8 1177.09L652.792 1183.6L662.844 1180.64L666.393 1179.45C666.393 1179.45 669.942 1185.36 670.539 1187.15C671.135 1188.93 678.802 1196.6 678.802 1196.6L682.947 1194.84C682.947 1194.84 681.755 1186.58 679.994 1185.38C678.233 1184.19 674.684 1174.14 674.684 1174.14L682.947 1167.64V1159.95L679.994 1151.09L692.403 1143.99L712.805 1154.04C712.805 1154.04 713.103 1158.78 717.248 1160.54C721.393 1162.3 733.802 1162.3 733.802 1162.3L746.211 1171.76L756.859 1183C756.859 1183 754.204 1191.86 758.782 1191.26C763.361 1190.67 767.507 1187.12 767.507 1187.12L766.91 1195.98L764.553 1206.62L756.859 1217.27L743.854 1223.77C743.854 1223.77 742.662 1236.18 741.497 1238.54C740.332 1240.89 735.59 1254.49 735.59 1256.28C735.59 1258.07 742.093 1260.43 742.093 1260.43L746.238 1270.48L742.093 1287.03C742.093 1287.03 740.901 1294.72 742.689 1298.27C744.477 1301.82 755.098 1313.63 756.886 1314.82C758.674 1316.02 774.632 1320.13 775.201 1321.92C775.77 1323.71 780.511 1329.02 785.551 1331.38C790.59 1333.73 802.999 1337.88 804.76 1339.64C806.521 1341.4 824.864 1347.33 824.864 1347.33L840.822 1353.83L856.184 1351.48L859.137 1337.88L867.997 1326.64L875.691 1329.59L876.883 1339.64L870.381 1347.33L865.64 1359.14L869.189 1363.29H873.93L877.479 1375.7V1381.6C877.479 1381.6 879.837 1379.84 881.625 1381.6C883.413 1383.36 892.272 1381.6 892.272 1381.6L901.132 1366.24L920.043 1338.47V1325.47C920.043 1325.47 914.733 1311.87 915.302 1310.11C915.871 1308.35 905.25 1289.41 905.25 1289.41L898.748 1278.17L886.935 1274.62V1255.12C886.935 1255.12 892.245 1253.92 891.676 1246.85C891.107 1239.78 898.179 1230.3 898.179 1230.3L908.827 1222.61C908.827 1222.61 917.686 1226.16 920.071 1227.92C922.455 1229.68 920.071 1237.37 920.071 1237.37C920.071 1237.37 914.76 1242.11 918.309 1244.47C921.859 1246.83 929.553 1243.28 929.553 1243.28V1224.96L925.408 1217.87L921.859 1213.72L911.211 1210.77L915.356 1203.67L932.506 1194.22L939.009 1202.48C939.009 1202.48 941.962 1213.13 941.366 1216.67C940.77 1220.22 949.63 1227.92 950.822 1230.87C952.014 1233.82 950.822 1245.07 950.822 1245.07L958.516 1252.76C958.516 1252.76 962.662 1274.62 962.662 1276.41C962.662 1278.2 963.258 1292.96 963.258 1292.96L970.952 1300.66V1266.95L973.309 1257.5L966.211 1244.5L973.309 1236.23L984.553 1249.83L982.196 1236.83L992.248 1233.28L998.154 1230.33L1010.56 1207.87L1007.61 1196.63L1010.56 1184.82L1007.01 1159.49L997.558 1150.52L985.149 1137.52L991.652 1129.82V1113.27L996.962 1102.62L979.812 1104.38L983.957 1094.93L986.91 1080.73L991.056 1073.04C991.056 1073.04 984.553 1070.09 981.6 1070.09C978.647 1070.09 968.595 1071.28 968.595 1071.28L966.238 1063.58L972.144 1053.53L979.243 1044.67C979.243 1044.67 982.792 1038.17 982.792 1036.41C982.792 1034.65 979.839 1020.46 979.839 1020.46L970.383 1013.36L966.238 1003.01V985.563C966.238 985.563 959.736 991.469 957.974 992.661C956.213 993.853 947.923 994.422 947.923 992.661C947.923 990.9 941.42 975.512 941.42 975.512L939.063 966.654L925.462 964.297L915.41 957.199L905.359 947.148C905.359 947.148 908.312 944.791 905.359 944.195C902.406 943.599 897.664 936.501 897.664 936.501H889.401L889.346 936.556Z" stroke="black" stroke-miterlimit="10"/>
<path d="M941.367 940.7L938.414 948.394L941.367 960.206H944.917V944.845L941.367 940.7Z" stroke="black" stroke-miterlimit="10"/>
<path d="M427.673 1348.55H420.574L411.715 1342.05L427.673 1333.19H443.035L456.04 1340.89L469.641 1338.53L473.19 1340.89L462.542 1353.29C462.542 1353.29 456.636 1359.79 454.279 1356.25C451.922 1352.7 446.015 1345.25 446.015 1345.25L435.368 1350.94L427.673 1348.58V1348.55Z" stroke="black" stroke-miterlimit="10"/>
<path d="M509.848 1278.79H515.754V1285.89L528.759 1295.94H539.407L547.074 1291.2L554.2 1278.79H560.702L567.801 1272.29H550.651L542.956 1262.24H529.355C529.355 1262.24 524.045 1255.74 522.853 1257.5C521.66 1259.26 518.707 1268.74 518.707 1268.74L509.848 1270.5V1278.77V1278.79Z" stroke="black" stroke-miterlimit="10"/>
<path d="M10.3498 1148.76L15.0912 1139.9L12.7341 1129.25C12.7341 1129.25 16.8794 1121.56 15.0912 1119.8C13.303 1118.04 6.23161 1110.34 6.23161 1110.34L1.49023 1123.35C1.49023 1123.35 6.80058 1133.4 5.63555 1135.16C4.47053 1136.92 8.50748 1143.42 8.50748 1143.42L10.3498 1148.73V1148.76Z" stroke="black" stroke-miterlimit="10"/>
<path d="M47.0074 1096.74L42.266 1107.39L37.5247 1102.08L29.8301 1096.77V1080.81L38.3917 1060.12C38.3917 1060.12 49.3375 1047.11 51.6946 1047.11C54.0518 1047.11 62.9385 1034.71 62.9385 1034.71L74.1823 1020.51L81.2808 1013.41H88.3793L94.8818 999.514L117.938 992.714L127.394 981.472L132.704 973.209L174.076 932.437L191.823 904.669L197.729 915.912L203.039 909.41L195.941 898.168L203.039 893.427C203.039 893.427 209.542 892.235 210.138 889.282C210.734 886.329 213.687 878.635 215.448 876.278C217.209 873.921 229.645 872.729 229.645 872.729L244.411 858.534L252.675 847.887V837.24L247.934 829.547L243.192 817.139L259.746 830.739L262.7 837.24V829.547C262.7 829.547 261.507 824.237 259.15 823.045C256.793 821.853 252.648 817.139 252.648 817.139L253.244 811.233L258.554 800.587L268.01 803.539L260.911 794.681L268.01 774.579L271.559 765.721C271.559 765.721 272.751 778.724 274.512 778.128C276.273 777.532 278.658 787.583 278.658 787.583L275.108 801.183L285.756 802.943L282.803 811.206H273.347C273.347 811.206 272.751 818.304 273.347 821.853C273.943 825.402 276.301 829.547 276.301 829.547C276.301 829.547 282.207 836.644 282.207 840.193C282.207 843.742 289.305 850.244 289.305 850.244V862.056L281.042 870.318L273.347 880.504H252.648L246.741 887.44L240.239 904.588L231.379 912.851L216.613 915.804H204.204C204.204 915.804 196.51 922.305 195.345 924.662C194.18 927.019 190.603 932.356 190.603 932.356L194.153 944.168C194.153 944.168 188.246 948.909 188.246 950.371C188.246 951.834 191.796 954.218 191.796 954.218L171.096 974.32L167.547 987.919L159.554 992.66L146.847 1003.01H135.603L122.002 1010.4L119.645 1016.91C119.645 1016.91 117.884 1029.31 116.096 1031.1C114.308 1032.89 106.044 1039.36 106.044 1039.36L83.5838 1051.18L67.6256 1055.32L64.6724 1064.78L58.17 1074.83L43.9729 1078.38C43.9729 1078.38 36.8744 1079.57 33.3252 1084.88C29.7759 1090.19 37.4705 1095.52 37.4705 1095.52L46.9261 1096.72L47.0074 1096.74Z" stroke="black" stroke-miterlimit="10"/>
<path d="M295.861 860.918L304.721 872.73L314.177 866.824L320.679 860.918L323.632 858.534L309.76 852.628H307.105L298.815 858.534L295.861 860.918Z" stroke="black" stroke-miterlimit="10"/>
<path d="M317.131 740.933L321.276 730.882L317.131 727.333L309.734 713.138L315.505 709.589L323.633 715.495L328.944 719.044V729.094C328.944 729.094 331.301 735.596 328.944 736.788C326.587 737.98 317.131 740.933 317.131 740.933Z" stroke="black" stroke-miterlimit="10"/>
<path d="M326.613 707.232L336.069 704.279L346.716 705.769L344.359 713.165L346.716 719.666L353.815 711.973C353.815 711.973 357.364 705.471 359.125 704.279C360.886 703.087 359.125 700.134 359.125 700.134L353.815 693.036L349.67 684.773L346.12 693.036L335.472 687.726L323.66 678.868L313.608 673.72C313.608 673.72 310.655 671.526 309.761 673.72C308.867 675.915 309.761 687.753 309.761 687.753H317.157L323.66 696.206L326.613 707.259V707.232Z" stroke="black" stroke-miterlimit="10"/>
<path d="M291.717 1441.34L299.411 1433.08L316.561 1422.43H321.872L344.332 1408.83L349.643 1418.88L352.596 1425.08L344.332 1436.03L341.975 1425.08H331.327L326.586 1428.93C326.586 1428.93 324.229 1433.08 322.143 1434.84C320.056 1436.6 314.746 1441.34 314.746 1441.34H299.384L291.689 1444.89V1441.34H291.717Z" stroke="black" stroke-miterlimit="10"/>
</svg>
