<svg preserveAspectRatio="xMidYMid meet" width="1012" height="768" viewBox="0 0 1012 768" fill="none" xmlns="http://www.w3.org/2000/svg">
<path d="M0.587891 603.517V593.849L12.9149 581.748V572.716L6.75726 565.33L24.7355 544.29H32.9064L40.6652 538.128L44.7742 535.564H50.4255H57.1012H61.8813L65.8372 530.366L67.8858 519.652L65.8372 506.821L67.8858 499.565L88.7251 508.503L83.2974 516.571L85.8759 519.652L86.9002 525.815L80.7308 535.047L79.7065 546.337L82.2731 554.851L86.3821 551.547L93.5758 549.418L96.896 528.378L103.854 517.088L114.921 505.281L122.857 507.844L114.921 521.428L117.723 526.32L126.459 533L134.677 530.366H138.28V545.819L134.159 551.547L119.266 557.627L94.0938 565.836L88.4425 569.94L88.7251 577.643L82.2731 584.911L69.4281 592.015L46.3283 594.579H32.9064L19.0842 599.2L10.3482 602.776L3.67257 606.386L0.587891 603.517Z" stroke="black" stroke-miterlimit="10"/>
<path d="M67.8865 499.565L75.3039 486.299L81.2495 473.974V463.201L78.1649 455.498L61.2109 442.162L49.9082 435.352L52.4748 426.426L58.1262 418.558L54.0172 410.879L55.5595 401.952L65.5789 385.711L81.2495 371.152V362.213L69.4288 348.936V341.574L88.7258 320.017L134.16 273.527L148.041 267.682L163.453 256.898H170.729L186.564 231.236L196.925 224.568L201.47 213.795L196.925 200.376L201.47 187.452L204.554 182.489H213.279L218.424 178.514H229.208L249.765 163.495L261.574 159.391H271.334L278.928 151.182V145.114L295.482 136.176L305.242 133.224L307.903 136.176L310.387 145.114L307.303 149.641L312.989 154.04V161.955L321.772 175.279L289.23 200.376L275.961 209.314L274.419 217.147L280.588 221.287L298.049 210.514L309.351 206.092L318.087 205.586L327.848 210.514" stroke="black" stroke-miterlimit="10"/>
<path d="M327.849 210.514L334.736 221.287L340.694 226.614L350.454 224.05L355.834 226.614L366.136 221.287L372.035 226.614H385.174L392.074 217.135L395.664 209.303L392.074 205.057L385.904 209.303L382.313 205.057L384.374 193.767L390.025 185.041L380.783 180.936L377.192 175.268L384.385 172.21L386.952 169.564L381.819 159.379L379.252 156.298L389.931 154.028L395.688 160.402L403.341 169.564L409.557 162.966L414.691 166.047L416.751 178.502V190.321L419.824 194.79L416.751 200.365L406.461 204.022L403.329 209.291L409.028 213.254L390.013 237.893L392.074 242.703L397.725 246.102L379.747 266.624L375.638 276.373L366.148 280.478V294.332L360.932 300.494L355.846 292.285L342.248 297.977L334.748 306.915L338.139 346.654H347.522L355.846 342.585L363.311 347.713L377.18 348.912L377.698 354.381L368.962 359.967L366.148 366.318V371.116H360.932L355.846 366.318H347.522L346.121 371.116L349.948 375.421L352.008 383.1L355.846 390.31L363.817 391.85L373.836 386.723L379.229 388.263H394.64L405.943 392.885L412.112 401.941V410.338L410.57 424.709L414.161 428.814L426.488 421.11V417.006L442.935 401.941L452.178 398.53L464.505 396.472L471.91 385.182L491.737 366.33H498.742V371.128L502.015 373.374L509.727 368.247L516.403 366.33V392.991L511.269 395.437L509.727 407.75L511.528 415.454L509.209 421.099L498.742 426.403L495.328 431.883L498.742 435.341L502.015 444.279L498.742 457.204L500.979 466.142L506.631 475.08L506.113 490.615L494.292 505.775L498.731 513.478L494.292 525.286L481.965 535.552L471.899 544.785L461.42 558.133L451.66 567.882H442.935L429.514 563.766L418.776 557.615L416.727 548.383L410.04 537.611L409.016 523.239L403.317 516.571L395.664 510.408L391.555 499.565L393.098 492.45L389.907 488.346L377.168 475.091V469.352L374.083 461.649L369.456 451.382L381.277 453.44L389.907 449.336L392.074 443.173L383.338 432.906L374.342 426.403L363.299 420.593L347.51 410.867L312.99 396.472L306.268 397.495L299.074 389.792L282.12 387.734H269.192L262.599 383.089H244.856L236.909 387.734L225.889 383.089H222.004L213.268 392.979C213.268 392.979 207.098 394.92 206.074 396.46C205.05 398.001 199.399 405.151 199.399 405.151L190.969 408.268L177.818 410.855H170.706L161.382 411.337L150.597 416.982L148.03 422.628L138.27 435.329V441.621L128.333 450.347L114.911 459.579L101.489 475.068V488.322L88.7031 508.48" stroke="black" stroke-miterlimit="10"/>
<path d="M319.371 245.866L325.929 242.726H329.908H334.736V245.866L329.908 250.1L331.71 254.334L329.908 258.956H325.54L319.371 245.866Z" stroke="black" stroke-miterlimit="10"/>
<path d="M339.41 251.664V247.407L346.121 245.478L352.903 240.092L360.932 232.4H364.076L369.857 238.551L376.403 242.032L372.164 247.407L370.233 252.793H360.932L355.846 250.841L347.51 251.664H339.41Z" stroke="black" stroke-miterlimit="10"/>
<path d="M406.461 136.552L411.853 142.326H419.176V145.114L414.938 150.029L416.739 154.04L424.18 159.262V164.272V169.576L430.35 172.351V176.973L433.434 183.9H438.438L444.607 180.819L452.307 176.973V171.963L447.304 163.883L450.765 160.226L456.357 154.04L453.461 145.114L447.692 148.877L440.369 148.101L438.05 141.95L442.936 136.552L448.069 133.224L445.761 123.85L440.746 112.313L437.284 98.8358L433.434 94.2139L435.353 102.305L433.046 111.149L426.5 118.088L416.739 123.239L411.853 130.013L406.461 136.552Z" stroke="black" stroke-miterlimit="10"/>
<path d="M204.555 182.489L206.474 171.587V161.19L205.508 147.336L199.539 136.176V133.224L206.474 121.157L215.339 111.537H222.274L234.601 108.08L250.401 102.305L258.113 98.0713L265.507 95.7545L275.832 91.9088L282.001 85.7462L286.628 76.5142L292.339 71.9628H297.413L306.279 69.9753L309.74 63.4247L307.044 56.8858L302.558 47.2657L306.279 43.0319L312.99 38.7981L319.371 33.0236L321.325 25.6262L324.386 21.2278L334.735 16.6882L346.12 7.75018L360.932 0.693848L366.147 4.92765L374.354 12.2898V21.2278L371.775 28.0136L367.925 35.7168L369.079 39.9506L371.775 44.1844L376.402 43.7963L382.572 38.0219L386.421 33.7881L389.906 33.0236L396.441 34.5643L403.328 33.4117L409.156 30.1658L412.241 25.3205L418.399 25.6262L428.029 21.2278H431.408L434.199 23.0154V30.1658L431.408 33.0236L434.199 38.41L438.437 41.1031L442.935 36.8693L447.691 37.2574L451.93 41.8793V47.2657V51.8758L458.087 59.0262L452.695 62.2721L452.307 65.3534L442.935 70.7398L434.587 78.0548L433.045 87.675V91.5912L425.722 94.2138H416.738H406.46L400.679 98.0713L395.287 101.917L383.725 105.375L375.248 108.456L371.398 114.301L371.775 122.698L368.314 126.167L363.687 127.32L360.932 130.401V136.176H355.845L347.51 139.057L343.648 145.114L339.409 150.794L329.908 159.65L324.386 164.66L321.773 175.279" stroke="black" stroke-miterlimit="10"/>
<path d="M325.48 209.314L329.907 206.609L332.863 202.376L334.735 196.601L339.409 191.215L346.12 188.898L353.666 183.9L362.921 175.279L379.227 156.31" stroke="black" stroke-miterlimit="10"/>
<path d="M389.906 154.04L392.591 148.489L397.983 145.113L406.46 136.552L411.852 130.013" stroke="black" stroke-miterlimit="10"/>
<path d="M440.744 112.313L451.929 109.997L461.171 107.303L471.909 105.375L479.279 102.305L491.229 94.2138L499.318 87.2869L505.487 89.8271L511.527 96.5307V102.681L505.099 112.313L502.791 123.239V133.224L504.71 139.057L502.402 145.114L493.925 151.182L498.741 156.31L511.527 154.04L520.899 153.875L530.141 159.261L538.359 161.19L547.484 159.261L553.924 156.31L561.353 161.19L565.591 166.965V175.279L562.895 183.9L559.422 186.981L553.653 180.819L547.872 175.279L543.634 180.819L547.484 187.452L550.568 191.591L553.924 198.165L549.414 203.916L545.941 210.514V218.252L542.091 223.933L538.359 230.472L541.703 236.634L543.634 243.35V251.664L541.314 252.793L544.787 258.956L553.924 262.413L562.13 265.495L563.661 270.881L570.607 276.655V284.735L567.334 291.674L570.607 298.001L564.049 303.987L559.422 300.906L552.876 300.518L549.791 303.987L550.945 308.985L545.176 315.877V320.146L548.637 326.697L544.399 339.998H539.772L524.949 353.64L516.401 358.638L510.491 364.025L513.576 366.353" stroke="black" stroke-miterlimit="10"/>
<path d="M448.068 133.224L456.357 126.932L465.411 123.239L469.649 121.545L474.653 123.086V127.379L471.91 133.224L464.257 139.057L456.357 145.114H453.461" stroke="black" stroke-miterlimit="10"/>
<path d="M463.48 328.802V318.994L465.023 310.914L461.361 302.446V294.743L463.198 288.204L467.342 282.465L464.352 278.584V270.881V262.037L461.361 264.589L458.088 270.505V278.584V280.889L456.357 288.592V292.826L458.088 298.001V306.939V315.877V319.382V324.768L463.48 328.802Z" stroke="black" stroke-miterlimit="10"/>
<path d="M117.465 321.687L130.958 311.679L140.2 306.939L149.065 297.437L152.15 292.438V289.745H149.454L143.897 295.414L134.807 300.518L128.332 305.716L119.396 315.148L114.922 319.77V321.687H117.465Z" stroke="black" stroke-miterlimit="10"/>
<path d="M114.922 505.281L118.854 499.565V493.732L124.023 485.652L128.344 477.573L138.281 470.258L145.992 466.153H157.319L160.639 469.482V475.091L162.452 479.878L167.573 481.419H170.741L174.508 479.49L177.981 476.797L183.527 472.951L188.895 471.022L193.781 469.482L199.562 466.153L210.359 460.626L213.432 457.215V451.394L216.516 447.548L222.297 444.291C222.297 444.291 228.078 445.619 229.232 446.008C230.386 446.396 232.316 451.394 232.316 451.394H242.336L252.755 447.548L263.14 444.291H280.859L289.242 447.936L295.494 447.548L302.57 446.396L309.751 444.291H315.144L325.481 449.477L337.102 455.063L343.93 456.028L347.615 456.557L352.36 457.227L360.943 458.721L366.159 457.227L369.479 451.406" stroke="black" stroke-miterlimit="10"/>
<path d="M506.124 490.627L513.576 492.191L518.58 489.886L522.819 487.193L524.938 481.807L527.057 475.644L531.684 471.41L535.923 469.87L542.469 467.941L544.011 469.87V476.409L548.638 480.066L553.925 478.337L567.346 474.786L574.846 466.153L588.327 461.402L597.193 457.556H606.953L616.843 462.943L626.862 461.402L639.577 455.628L641.508 451.782C641.508 451.782 639.577 453.323 638.424 451.782C637.27 450.241 632.254 452.935 630.712 449.477C629.17 446.019 629.947 444.291 629.947 444.291L638.812 440.233H647.678L657.697 438.304L664.632 435.353L671.178 426.415L675.546 422.145H681.197C681.197 422.145 688.25 425.309 688.956 426.415C689.662 427.52 695.832 432.142 695.832 432.142L702.366 435.341L714.705 432.518L726.266 424.439L733.978 419.44L742.455 415.971L752.086 405.163L757.867 400.2L768.651 398.66L778.282 396.355H784.369L795.236 393.003L799.922 388.651L806.786 384.806L810.259 375.574V366.342L817.583 357.474L826.754 351.312H831.84C831.84 351.312 839.929 352.464 841.083 353.24C842.236 354.016 852.95 355.545 852.95 355.545L862.275 357.474L869.987 364.401L877.31 366.342H893.499L901.21 371.14C901.21 371.14 907.038 374.033 908.169 374.409C909.299 374.786 918.541 371.14 918.541 371.14L948.387 357.862L963.952 348.924L969.026 339.986V327.061L972.876 314.748L977.362 305.704L982.507 295.402L990.784 297.989L994.069 302.823V309.75L988.288 321.687L987.134 331.307L990.784 339.998V352.476L999.461 360.967L1005.63 366.353L1011.41 368.647V372.88L1007.56 378.972L1006.02 383.124L1003.57 388.275L990.796 390.58L981.365 393.802L982.13 401.941L981.742 414.442L983.284 417.912L966.33 422.534L952.849 428.308L945.915 435.364L944.761 440.633L946.692 444.479L951.696 450.641L952.849 454.875L950.153 459.497L940.911 466.177L937.061 475.28L933.211 484.135L926.276 485.676L918.565 490.651L906.238 502.988L895.383 505.293L885.045 510.291L873.872 518.37L868.091 525.685L864.618 530.378L867.314 535.694L870.787 541.856L878.876 549.936L888.507 557.639L893.134 567.906L895.383 574.574V588.04L888.518 599.201L879.653 606.386L876.957 610.75L873.107 615.748L851.526 619.053L843.049 627.991L839.576 636.929V643.844L841.895 649.853L839.576 655.005L836.503 665.777L832.653 675.785L821.868 683.265H794.895L784.416 692.203L781.791 703.505L777.164 714.066L780.248 723.004L774.856 728.355L767.144 725.439L754.817 722.992L749.037 725.439L741.713 725.05L731.376 716.959L725.525 718.17L717.954 728.343H709.725L712.809 714.054L707.028 706.575L697.398 697.719L687.378 696.566L675.051 697.331L669.659 698.483L658.874 694.638C658.874 694.638 649.514 692.05 649.373 692.191C649.232 692.333 646.547 695.414 646.547 695.414V701.576L640.001 704.658L620.41 710.044L603.397 728.355L593.578 731.954L578.355 741.221L570.643 739.681L562.931 734.682L538.395 734.294L527.87 745.737L519.781 747.478L509.373 750.465L505.712 760.085L503.592 767.353H498.777L492.419 761.802L487.792 756.416H482.011L475.842 761.802L467.365 767.353L461.878 765.354L456.392 756.416V752.006L442.97 732.824L440.78 728.355L442.97 719.123L440.78 714.066L427.299 702.741L425.369 692.215L421.519 680.807L414.584 674.268L405.718 669.646C405.718 669.646 402.245 660.661 401.48 658.803C400.715 656.945 395.699 651.559 395.699 651.559L389.942 649.877L382.984 652.723L375.272 654.264L369.491 658.815L366.795 651.571V639.634L369.491 628.014L374.495 622.698L377.968 616.924L371.033 613.078L350.606 613.466L344.06 611.161L334.759 603.552L333.264 594.614L339.433 588.84L341.364 579.22L342.906 567.929L344.449 554.875L349.841 543.808L357.929 536.881L362.556 523.416L357.929 518.794L350.995 514.172L343.283 505.316L336.737 490.662L334.759 481.066L333.264 472.598L337.891 466.189L344.06 459.509L343.954 456.051" stroke="black" stroke-miterlimit="10"/>
</svg>
